<?xml version="1.0" standalone="no"?>
<!DOCTYPE svg PUBLIC "-//W3C//DTD SVG 20010904//EN"
 "http://www.w3.org/TR/2001/REC-SVG-20010904/DTD/svg10.dtd">
<svg version="1.0" xmlns="http://www.w3.org/2000/svg"
 width="736.000000pt" height="736.000000pt" viewBox="0 0 736.000000 736.000000"
 preserveAspectRatio="xMidYMid meet">
<metadata>
Created by potrace 1.11, written by Peter Selinger 2001-2013
</metadata>
<g transform="translate(0.000000,736.000000) scale(0.100000,-0.100000)"
fill="#000000" stroke="none">
<path d="M3547 7086 c-56 -29 -122 -64 -147 -78 -25 -14 -72 -40 -105 -58 -33
-18 -73 -41 -90 -50 -16 -9 -174 -95 -350 -190 -176 -96 -321 -178 -323 -182
-2 -4 -11 -8 -21 -8 -9 0 -22 -5 -27 -10 -6 -6 -26 -18 -45 -28 -51 -27 -208
-113 -254 -139 -22 -12 -60 -32 -85 -45 -25 -12 -47 -25 -50 -28 -3 -3 -25
-16 -50 -29 -58 -30 -184 -98 -235 -126 -22 -12 -65 -36 -95 -52 -30 -17 -75
-41 -100 -55 -41 -23 -197 -108 -330 -180 -30 -17 -77 -43 -105 -58 -154 -84
-303 -165 -322 -174 -13 -6 -23 -14 -23 -18 0 -5 -6 -8 -14 -8 -13 0 -43 -16
-191 -102 -37 -22 -56 -41 -71 -73 -20 -44 -20 -56 -19 -1722 1 -1184 4 -1685
12 -1703 15 -34 48 -64 108 -96 28 -15 73 -40 100 -56 28 -15 57 -31 65 -35 8
-4 44 -23 80 -44 36 -20 106 -58 155 -85 50 -26 108 -58 130 -71 22 -12 60
-33 85 -46 80 -42 385 -207 400 -217 8 -6 26 -16 40 -22 14 -7 52 -28 85 -47
33 -20 66 -36 73 -37 8 -2 21 -9 30 -17 10 -7 62 -38 117 -67 55 -29 116 -62
135 -73 19 -11 62 -34 95 -52 33 -18 102 -55 154 -84 52 -28 97 -51 102 -51 4
0 9 -3 11 -7 2 -5 19 -16 38 -25 19 -10 64 -33 99 -53 36 -20 96 -53 135 -74
129 -69 211 -113 241 -131 17 -10 56 -32 88 -49 31 -17 83 -45 115 -62 31 -18
71 -39 87 -48 17 -9 38 -22 48 -30 9 -8 17 -11 17 -7 0 4 12 -1 28 -11 15 -11
50 -30 77 -44 28 -13 52 -26 55 -29 19 -20 139 -73 172 -75 40 -3 94 20 284
125 32 18 79 44 104 58 25 13 72 39 105 57 33 18 132 72 220 120 88 49 185
101 215 117 30 16 69 37 85 47 17 10 80 44 140 76 61 32 117 64 126 71 8 8 19
14 24 14 4 0 40 18 79 39 39 22 75 40 80 39 5 0 12 4 15 9 3 5 44 29 91 54 47
24 87 47 90 50 3 3 23 14 45 25 22 10 46 24 53 31 7 7 17 13 22 13 5 0 69 33
142 74 149 82 253 139 313 170 22 12 42 24 43 29 2 4 8 7 14 7 5 0 55 25 111
56 56 31 140 77 187 102 47 24 98 54 113 64 15 11 33 21 40 22 7 1 23 9 37 18
24 15 142 79 264 144 76 40 124 79 139 112 13 31 19 3358 6 3404 -10 38 -55
82 -114 114 -27 15 -72 40 -100 56 -27 15 -57 31 -65 35 -8 4 -44 23 -80 43
-36 21 -101 56 -145 80 -44 24 -100 54 -125 68 -25 14 -74 41 -110 60 -36 19
-85 46 -110 59 -25 14 -79 44 -120 67 -41 22 -97 53 -125 68 -27 15 -61 33
-75 40 -14 7 -50 27 -80 44 -30 17 -86 48 -125 69 -129 69 -199 108 -285 155
-47 26 -121 66 -165 90 -124 66 -140 75 -145 80 -3 3 -39 23 -80 44 -41 21
-91 48 -110 60 -19 11 -41 21 -49 23 -8 1 -17 5 -20 10 -7 9 -4 7 -146 83 -55
29 -104 56 -110 60 -9 7 -39 23 -210 115 -38 21 -92 50 -120 65 -27 16 -66 37
-86 48 -166 92 -235 124 -270 127 -33 3 -60 -7 -142 -49z"/>
</g>
</svg>
