<svg width="442" height="88" viewBox="0 0 442 88" fill="none" xmlns="http://www.w3.org/2000/svg">
<path d="M307 69H294.4L298.504 39.48H290.368L286.84 64.176C286.264 68.304 285.112 71.712 283.384 74.4C281.656 77.136 279.52 79.296 276.976 80.88C274.48 82.512 271.456 83.928 267.904 85.128L264.808 75.984C267.736 74.928 269.92 73.584 271.36 71.952C272.848 70.32 273.808 67.92 274.24 64.752L277.696 39.48H272.368L273.52 30.624H278.92L279.352 27.744C279.88 23.76 281.68 20.52 284.752 18.024C287.872 15.48 291.928 14.208 296.92 14.208C299.512 14.208 301.84 14.448 303.904 14.928C306.016 15.408 308.104 16.2 310.168 17.304L305.848 25.368C303.016 24.12 300.448 23.496 298.144 23.496C296.176 23.496 294.688 23.904 293.68 24.72C292.72 25.488 292.12 26.76 291.88 28.536L291.592 30.624H312.328L307 69ZM343.496 29.328C346.184 29.328 348.272 30.12 349.76 31.704C351.296 33.288 352.064 35.52 352.064 38.4C352.064 39.168 351.992 40.032 351.848 40.992L347.96 69H335.36L338.888 44.088C338.984 43.224 339.032 42.696 339.032 42.504C339.032 40.68 338.408 39.768 337.16 39.768C336.056 39.768 334.904 40.512 333.704 42C332.504 43.488 331.232 45.648 329.888 48.48L326.936 69H314.336L319.664 30.624H330.608L330.536 37.176C332.12 34.776 334.064 32.88 336.368 31.488C338.672 30.048 341.048 29.328 343.496 29.328ZM372.905 30.624L367.577 69H354.977L360.305 30.624H372.905ZM367.649 24.072C365.681 24.072 364.097 23.496 362.897 22.344C361.745 21.192 361.169 19.704 361.169 17.88C361.169 15.624 361.937 13.752 363.473 12.264C365.057 10.728 367.001 9.96 369.305 9.96C371.273 9.96 372.833 10.536 373.985 11.688C375.185 12.84 375.785 14.328 375.785 16.152C375.785 18.408 374.993 20.304 373.409 21.84C371.873 23.328 369.953 24.072 367.649 24.072ZM392.945 60.216C394.002 60.216 395.322 59.856 396.906 59.136L400.146 67.416C398.562 68.376 396.762 69.096 394.746 69.576C392.73 70.104 390.834 70.368 389.058 70.368C385.362 70.368 382.53 69.384 380.562 67.416C378.642 65.448 377.682 62.592 377.682 58.848C377.682 57.792 377.754 56.688 377.898 55.536L380.13 39.48H375.306L376.458 30.624H381.93L384.306 22.272L395.322 20.976L394.026 30.624H402.666L400.074 39.48H392.802L390.57 55.536C390.474 56.4 390.426 56.976 390.426 57.264C390.426 58.32 390.642 59.088 391.074 59.568C391.506 60 392.13 60.216 392.945 60.216ZM424.98 69.072C420.564 79.344 412.26 84.72 400.068 85.2L399.78 76.344C403.476 75.912 406.284 75.168 408.204 74.112C410.124 73.056 411.804 71.352 413.244 69H408.78L403.092 30.624H416.196L417.852 60.936L428.508 30.624H441.684L424.98 69.072Z" fill="black"/>
<path d="M28.44 17.664C34.92 17.664 40.008 19.728 43.704 23.856L36.72 30.624C35.472 29.568 34.2 28.776 32.904 28.248C31.608 27.672 30.168 27.384 28.584 27.384C25.56 27.384 23.088 28.584 21.168 30.984C19.296 33.384 17.928 36.288 17.064 39.696C16.248 43.056 15.84 46.32 15.84 49.488C15.84 53.088 16.536 55.776 17.928 57.552C19.32 59.28 21.312 60.144 23.904 60.144C25.632 60.144 27.24 59.784 28.728 59.064C30.264 58.344 31.944 57.312 33.768 55.968L38.736 63.672C36.576 65.64 34.056 67.248 31.176 68.496C28.296 69.744 25.152 70.368 21.744 70.368C17.856 70.368 14.448 69.576 11.52 67.992C8.592 66.36 6.312 63.984 4.68 60.864C3.096 57.744 2.304 53.976 2.304 49.56C2.304 44.472 3.192 39.504 4.968 34.656C6.792 29.76 9.648 25.704 13.536 22.488C17.472 19.272 22.44 17.664 28.44 17.664ZM57.3716 70.368C52.1876 70.368 48.1556 68.928 45.2756 66.048C42.3956 63.12 40.9556 59.064 40.9556 53.88C40.9556 49.8 41.6756 45.912 43.1156 42.216C44.5556 38.472 46.9076 35.4 50.1716 33C53.4356 30.552 57.6356 29.328 62.7716 29.328C67.9076 29.328 71.9396 30.792 74.8676 33.72C77.7956 36.6 79.2596 40.56 79.2596 45.6C79.2596 49.632 78.5396 53.544 77.0996 57.336C75.7076 61.08 73.3556 64.2 70.0436 66.696C66.7796 69.144 62.5556 70.368 57.3716 70.368ZM58.3796 61.008C61.4036 61.008 63.4916 59.28 64.6436 55.824C65.7956 52.368 66.3716 48.672 66.3716 44.736C66.3716 42.624 65.9876 41.088 65.2196 40.128C64.4996 39.12 63.3716 38.616 61.8356 38.616C58.8116 38.616 56.7236 40.32 55.5716 43.728C54.4196 47.088 53.8436 50.712 53.8436 54.6C53.8436 56.856 54.2036 58.488 54.9236 59.496C55.6436 60.504 56.7956 61.008 58.3796 61.008ZM124.133 15.504L116.645 69H105.413L105.485 63.816C102.413 68.184 98.6211 70.368 94.1091 70.368C90.1731 70.368 87.1731 69.024 85.1091 66.336C83.0931 63.6 82.0851 59.76 82.0851 54.816C82.0851 50.976 82.7571 47.088 84.1011 43.152C85.4451 39.216 87.5091 35.928 90.2931 33.288C93.0771 30.648 96.5331 29.328 100.661 29.328C102.389 29.328 103.973 29.64 105.413 30.264C106.853 30.84 108.077 31.656 109.085 32.712L111.605 14.208L124.133 15.504ZM103.469 38.544C101.453 38.544 99.8211 39.432 98.5731 41.208C97.3251 42.936 96.4371 45.048 95.9091 47.544C95.3811 50.04 95.1171 52.464 95.1171 54.816C95.1171 57.168 95.4291 58.8 96.0531 59.712C96.6771 60.576 97.5411 61.008 98.6451 61.008C100.901 61.008 103.349 58.848 105.989 54.528L107.933 40.704C106.685 39.264 105.197 38.544 103.469 38.544ZM161.426 40.056C161.426 48.6 153.266 53.64 136.946 55.176C137.186 59.112 139.274 61.08 143.21 61.08C144.794 61.08 146.33 60.816 147.818 60.288C149.306 59.712 150.986 58.8 152.858 57.552L157.322 65.04C152.33 68.592 147.098 70.368 141.626 70.368C135.914 70.368 131.594 68.904 128.666 65.976C125.738 63 124.274 58.992 124.274 53.952C124.274 50.112 125.018 46.32 126.506 42.576C128.042 38.784 130.49 35.64 133.85 33.144C137.21 30.6 141.482 29.328 146.666 29.328C151.322 29.328 154.946 30.336 157.538 32.352C160.13 34.368 161.426 36.936 161.426 40.056ZM137.45 47.688C141.578 47.448 144.482 46.632 146.162 45.24C147.89 43.848 148.754 42.312 148.754 40.632C148.754 39.768 148.49 39.048 147.962 38.472C147.482 37.896 146.666 37.608 145.514 37.608C143.354 37.608 141.602 38.568 140.258 40.488C138.962 42.36 138.026 44.76 137.45 47.688Z" fill="black"/>
<path d="M213.042 0.523263C213.639 0.197141 214.361 0.197141 214.958 0.523263L252.796 21.1813C253.438 21.5319 253.837 22.2051 253.837 22.9367V64.0633C253.837 64.7949 253.438 65.4681 252.796 65.8187L214.958 86.4768C214.361 86.8029 213.639 86.8029 213.042 86.4768L175.204 65.8187C174.562 65.4681 174.163 64.7949 174.163 64.0633V22.9367C174.163 22.2051 174.562 21.5319 175.204 21.1813L213.042 0.523263Z" fill="#163FD1" style="mix-blend-mode:multiply"/>
<path d="M213.042 4.52326C213.639 4.19714 214.361 4.19714 214.958 4.52326L249.331 23.29C249.974 23.6406 250.373 24.3138 250.373 25.0454V62.3894C250.373 63.121 249.974 63.7942 249.331 64.1448L214.958 82.9115C214.361 83.2377 213.639 83.2377 213.042 82.9115L178.669 64.1448C178.026 63.7942 177.627 63.121 177.627 62.3894V25.0454C177.627 24.3138 178.026 23.6406 178.669 23.29L213.042 4.52326Z" fill="#5B76FF"/>
<g clip-path="url(#clip0)">
<path d="M238 26H191V28.585H238V26Z" fill="white"/>
<path d="M238 58.665H191V61.25H238V58.665Z" fill="white"/>
<path d="M193.585 26H191V61.25H193.585V26Z" fill="white"/>
<path d="M238 26H235.415V61.25H238V26Z" fill="white"/>
<path d="M238 33.2179H191V35.8029H238V33.2179Z" fill="white"/>
<path d="M198.29 29.6633H195.705V32.2483H198.29V29.6633Z" fill="white"/>
<path d="M201.703 29.6633H199.118V32.2483H201.703V29.6633Z" fill="white"/>
<path d="M205.096 29.6633H202.511V32.2483H205.096V29.6633Z" fill="white"/>
<path d="M205.022 53.5701L205.066 40.6327L216.248 47.1397L205.022 53.5701ZM207.636 45.1188L207.622 49.1014L211.078 47.1219L207.636 45.1188Z" fill="white"/>
<path d="M224.053 53.7313L213.395 47.1398L224.012 40.4699L224.053 53.7313ZM218.282 47.1226L221.454 49.0843L221.441 45.1375L218.282 47.1226Z" fill="white"/>
</g>
<defs>
<clipPath id="clip0">
<rect width="47" height="35.25" fill="white" transform="translate(191 26)"/>
</clipPath>
</defs>
</svg>
